<svg width="1192" height="595" xmlns="http://www.w3.org/2000/svg"><defs><linearGradient x1="99.916%" y1="49.916%" x2=".337%" y2="49.916%" id="a"><stop stop-color="#FFB400" offset="0%"/><stop stop-color="red" offset="100%"/></linearGradient></defs><g fill="none" fill-rule="evenodd"><path d="M850 0L425.27 425l-.271-.27-.27.27L0 0z" transform="translate(171)" fill="url(#a)"/><g fill="#323232"><path d="M87 62v9h9v3h-9v9h-3v-9h-9v-3h9v-9h3zm0-31v9h9v3h-9v9h-3v-9h-9v-3h9v-9h3zm-31 0v9h9v3h-9v9h-3v-9h-9v-3h9v-9h3zm62 0v9h9v3h-9v9h-3v-9h-9v-3h9v-9h3zM87 0v9h9v3h-9v9h-3v-9h-9V9h9V0h3zM56 0v9h9v3h-9v9h-3v-9h-9V9h9V0h3zM25 0v9h9v3h-9v9h-3v-9h-9V9h9V0h3zm93 0v9h9v3h-9v9h-3v-9h-9V9h9V0h3zm31 0v9h9v3h-9v9h-3v-9h-9V9h9V0h3zM1192 0h-15.545l7.772 7.727L1192 0zm-15.545 0h-15.546l7.773 7.727L1176.455 0zm-15.546 0h-15.546l7.773 7.727L1160.91 0zm-15.546 0h-15.545l7.773 7.727L1145.363 0zm-15.545 0h-15.545l7.773 7.727L1129.818 0zm-15.545 0h-15.546l7.773 7.727L1114.273 0zm-15.546 0h-15.545l7.772 7.727L1098.727 0zm-15.545 0h-15.546l7.773 7.728L1083.182 0zm-15.546 0h-15.545l7.773 7.728L1067.636 0zm-15.545 0h-15.546l7.773 7.728L1052.091 0zm-15.546 0H1021l7.772 7.728L1036.545 0zm139.91 15.454l-7.773-7.726-7.773 7.726 7.773 7.728 7.773-7.728zm-15.546 0l-7.773-7.726-7.773 7.726 7.773 7.728 7.773-7.728zm-15.546 0l-7.772-7.726-7.773 7.726 7.773 7.728 7.772-7.728zm15.547 15.456l-7.773-7.727-7.773 7.727 7.773 7.727 7.773-7.727zm-31.091-15.455l-7.772-7.726-7.773 7.726 7.773 7.728 7.772-7.728zm15.545 15.455l-7.772-7.727-7.773 7.727 7.773 7.727 7.772-7.727zm-31.09-15.455l-7.774-7.728-7.773 7.727 7.773 7.728 7.773-7.728zm15.545 15.455l-7.772-7.727-7.773 7.727 7.773 7.727 7.772-7.727zm15.545 15.455l-7.772-7.728-7.773 7.728 7.773 7.727 7.772-7.727zm-46.636-30.91l-7.773-7.727-7.773 7.727 7.773 7.728 7.773-7.728zm15.545 15.455l-7.773-7.728-7.773 7.727 7.773 7.727 7.773-7.727zm15.545 15.455l-7.772-7.728-7.773 7.728 7.773 7.727 7.772-7.727zm-46.637-30.91l-7.771-7.728-7.773 7.727 7.773 7.728 7.772-7.728zm15.546 15.455l-7.773-7.727-7.773 7.727 7.773 7.727 7.773-7.727zm15.546 15.455l-7.773-7.729-7.773 7.728 7.773 7.726 7.773-7.727zm15.545 15.454l-7.772-7.727-7.773 7.727 7.773 7.728 7.772-7.728zm-62.182-46.365l-7.772-7.726-7.773 7.726 7.773 7.728 7.772-7.728zm15.546 15.456l-7.773-7.727-7.773 7.727 7.773 7.727 7.773-7.727zm15.545 15.455l-7.773-7.728-7.772 7.728 7.772 7.727 7.773-7.727zm15.546 15.454l-7.773-7.728-7.773 7.727 7.773 7.728 7.773-7.728zm0 15.455l-7.773-7.728-7.773 7.727L1106.5 85l7.773-7.727zm-15.546-15.456l-7.773-7.727-7.772 7.727 7.772 7.728 7.773-7.728zm-15.545-15.454l-7.773-7.728-7.773 7.728 7.773 7.727 7.773-7.727zm-15.546-15.455l-7.772-7.727-7.773 7.727 7.773 7.727 7.772-7.727zm-23.318-7.727l-7.773-7.728 7.773-7.726 7.773 7.726-7.773 7.728z"/></g><g fill="#323232"><path d="M116.195 100.456l7.708-7.663 7.751 7.706-7.708 7.678-7.751-7.72zm15.517 15.456l7.723-7.678 7.752 7.707-7.723 7.691-7.752-7.72zm15.518 15.456l7.737-7.692 7.752 7.706-7.737 7.706-7.752-7.72zm15.475-30.883l-7.723 7.692-7.738-7.707 7.723-7.677 7.738 7.692zm.042 46.338l7.753-7.706 7.752 7.706-7.752 7.721-7.753-7.72zm15.49-30.897l-7.737 7.706-7.737-7.706 7.737-7.692 7.736 7.692zm.043 15.456l7.753-7.706 7.736 7.692-7.751 7.72-7.738-7.706zm15.475-30.912l-7.737 7.707-7.722-7.692 7.737-7.692 7.722 7.677zm.058 15.47l7.751-7.706 7.723 7.678-7.751 7.72-7.723-7.691zm15.532-15.44l7.752-7.707 7.707 7.663-7.75 7.72-7.709-7.677zM85 85l.072.072 7.767 7.721 7.765 7.72 7.767 7.721 7.766 7.721 7.766 7.72 7.767 7.721 7.765 7.72 7.766 7.722 7.766 7.72 7.766 7.72L170.5 170l7.766-7.721 7.767-7.72 7.766-7.721 7.765-7.721 7.767-7.72 7.766-7.721 7.765-7.72 7.767-7.722 7.766-7.72 7.766-7.72 7.766-7.722L256 85h-15.677l-7.752 7.721-7.693-7.663.058-.058h-15.678l.015.015-7.737 7.706-7.71-7.678.044-.043h-15.677l.03.029-7.723 7.691-7.723-7.69.029-.03h-15.677l.044.043-7.709 7.678-7.737-7.706.015-.015h-15.678l.059.058-7.695 7.663L100.676 85H85zM1107 85h-8.142l4.07 4.048L1107 85zm-28.5 28.334l4.072-4.048L1058.189 85H1050l28.5 28.334zm-8.143 8.094l4.071-4.047L1041.918 85h-8.203l36.642 36.428zm24.429-24.285l4.07-4.048L1090.73 85h-8.158l12.214 12.143zm-8.143 8.095l4.072-4.048L1074.459 85h-8.173l20.357 20.238zm-24.429 24.286l4.072-4.048L1025.647 85h-8.217l44.785 44.524zm-16.285 16.19l4.071-4.047L993.106 85h-8.248l61.07 60.714zm-16.286 16.19l4.072-4.047L960.565 85h-8.28l77.358 76.905zm8.143-8.095l4.072-4.047L976.836 85h-8.264l69.214 68.81zM1021.5 170l4.072-4.047L944.294 85H936l85.5 85zm-20.357-85h8.234l48.766 48.571-4.072 4.048L1001.143 85z"/></g><g fill="#323232"><path d="M325.455 170h-7.896L255.5 231.81 193.441 170h-7.896l69.955 69.546L325.455 170zm-15.546 0h-7.866L255.5 216.356 208.957 170h-7.866l54.409 54.09L309.91 170zM255.5 247.266L177.924 170H170l85.5 85 85.5-85h-7.924L255.5 247.266zM263.272 170h-15.545l7.773 7.727 7.772-7.727zm31.092 0h-7.838L255.5 200.902 224.474 170h-7.838l38.864 38.636L294.364 170zM255.5 193.182L232.182 170h7.809l15.509 15.448L271.01 170h7.808L255.5 193.182zM882.195 185.456l7.708-7.663 7.751 7.706-7.708 7.678-7.751-7.72zm15.517 15.456l7.723-7.678 7.752 7.707-7.723 7.691-7.752-7.72zm15.518 15.456l7.737-7.692 7.752 7.706-7.737 7.706-7.752-7.72zm15.475-30.883l-7.723 7.692-7.738-7.707 7.723-7.677 7.738 7.692zm.042 46.338l7.753-7.706 7.752 7.706-7.752 7.721-7.753-7.72zm15.49-30.897l-7.737 7.706-7.737-7.706 7.737-7.692 7.736 7.692zm.043 15.456l7.753-7.706 7.736 7.692-7.751 7.72-7.738-7.706zm15.475-30.912l-7.737 7.707-7.722-7.692 7.737-7.692 7.722 7.677zm.058 15.47l7.751-7.706 7.723 7.678-7.751 7.72-7.723-7.691zm15.532-15.44l7.752-7.707 7.707 7.663-7.75 7.72-7.709-7.677zM851 170l.072.072 7.767 7.721 7.765 7.72 7.767 7.721 7.766 7.721 7.766 7.72 7.767 7.721 7.765 7.72 7.766 7.722 7.766 7.72 7.766 7.72L936.5 255l7.766-7.721 7.767-7.72 7.766-7.721 7.765-7.721 7.767-7.72 7.766-7.721 7.765-7.72 7.767-7.722 7.766-7.72 7.766-7.72 7.766-7.722.073-.072h-15.677l-7.752 7.721-7.693-7.663.058-.058h-15.678l.015.015-7.737 7.706-7.71-7.678.044-.043h-15.677l.03.029-7.723 7.691-7.723-7.69.029-.03h-15.677l.044.043-7.709 7.678-7.737-7.706.015-.015h-15.678l.059.058-7.695 7.663-7.752-7.721H851z"/></g><g fill="#323232"><path d="M426 255h-15.545l7.772 7.727L426 255zm-15.545 0h-15.546l7.773 7.727 7.773-7.727zm-15.546 0h-15.546l7.773 7.727L394.91 255zm-15.546 0h-15.545l7.773 7.727 7.772-7.727zm-15.545 0h-15.545l7.773 7.727 7.772-7.727zm-15.545 0h-15.546l7.773 7.727 7.773-7.727zm-15.546 0h-15.545l7.772 7.727 7.773-7.727zm-15.545 0h-15.546l7.773 7.728 7.773-7.728zm-15.546 0h-15.545l7.773 7.728 7.772-7.728zm-15.545 0h-15.546l7.773 7.728 7.773-7.728zm-15.546 0H255l7.772 7.728 7.773-7.728zm139.91 15.454l-7.773-7.726-7.773 7.726 7.773 7.728 7.773-7.728zm-15.546 0l-7.773-7.726-7.773 7.726 7.773 7.728 7.773-7.728zm-15.546 0l-7.772-7.726-7.773 7.726 7.773 7.728 7.772-7.728zm15.547 15.456l-7.773-7.727-7.773 7.727 7.773 7.727 7.773-7.727zm-31.091-15.455l-7.772-7.726-7.773 7.726 7.773 7.728 7.772-7.728zm15.545 15.455l-7.772-7.727-7.773 7.727 7.773 7.727 7.772-7.727zm-31.09-15.455l-7.774-7.728-7.773 7.727 7.773 7.728 7.773-7.728zm15.545 15.455l-7.772-7.727-7.773 7.727 7.773 7.727 7.772-7.727zm15.545 15.455l-7.772-7.728-7.773 7.728 7.773 7.727 7.772-7.727zm-46.636-30.91l-7.773-7.727-7.773 7.727 7.773 7.728 7.773-7.728zm15.545 15.455l-7.773-7.728-7.773 7.727 7.773 7.727 7.773-7.727zm15.545 15.455l-7.772-7.728-7.773 7.728 7.773 7.727 7.772-7.727zm-46.637-30.91l-7.771-7.728-7.773 7.727 7.773 7.728 7.772-7.728zm15.546 15.455l-7.773-7.727-7.773 7.727 7.773 7.727 7.773-7.727zm15.546 15.455l-7.773-7.729-7.773 7.728 7.773 7.726 7.773-7.727zm15.545 15.454l-7.772-7.727-7.773 7.727 7.773 7.728 7.772-7.728zm-62.182-46.365l-7.772-7.726-7.773 7.726 7.773 7.728 7.772-7.728zm15.546 15.456l-7.773-7.727-7.773 7.727 7.773 7.727 7.773-7.727zm15.545 15.455l-7.773-7.728-7.772 7.728 7.772 7.727 7.773-7.727zm15.546 15.454l-7.773-7.728-7.773 7.727 7.773 7.728 7.773-7.728zm0 15.455l-7.773-7.728-7.773 7.727L340.5 340l7.773-7.727zm-15.546-15.456l-7.773-7.727-7.772 7.727 7.772 7.728 7.773-7.728zm-15.545-15.454l-7.773-7.728-7.773 7.728 7.773 7.727 7.773-7.727zm-15.546-15.455l-7.772-7.727-7.773 7.727 7.773 7.727 7.772-7.727zm-23.318-7.727l-7.773-7.728 7.773-7.726 7.773 7.726-7.773 7.728zM853 317v9h9v3h-9v9h-3v-9h-9v-3h9v-9h3zm0-31v9h9v3h-9v9h-3v-9h-9v-3h9v-9h3zm-31 0v9h9v3h-9v9h-3v-9h-9v-3h9v-9h3zm62 0v9h9v3h-9v9h-3v-9h-9v-3h9v-9h3zm-31-31v9h9v3h-9v9h-3v-9h-9v-3h9v-9h3zm-31 0v9h9v3h-9v9h-3v-9h-9v-3h9v-9h3zm-31 0v9h9v3h-9v9h-3v-9h-9v-3h9v-9h3zm93 0v9h9v3h-9v9h-3v-9h-9v-3h9v-9h3zm31 0v9h9v3h-9v9h-3v-9h-9v-3h9v-9h3z"/></g><g fill="#323232"><path d="M427 402v9h9v3h-9v9h-3v-9h-9v-3h9v-9h3zm0-31v9h9v3h-9v9h-3v-9h-9v-3h9v-9h3zm-31 0v9h9v3h-9v9h-3v-9h-9v-3h9v-9h3zm62 0v9h9v3h-9v9h-3v-9h-9v-3h9v-9h3zm-31-31v9h9v3h-9v9h-3v-9h-9v-3h9v-9h3zm-31 0v9h9v3h-9v9h-3v-9h-9v-3h9v-9h3zm-31 0v9h9v3h-9v9h-3v-9h-9v-3h9v-9h3zm93 0v9h9v3h-9v9h-3v-9h-9v-3h9v-9h3zm31 0v9h9v3h-9v9h-3v-9h-9v-3h9v-9h3zM836.455 340h-7.896L766.5 401.81 704.441 340h-7.896l69.955 69.546L836.455 340zm-15.546 0h-7.866L766.5 386.356 719.957 340h-7.866l54.409 54.09L820.91 340zM766.5 417.266L688.924 340H681l85.5 85 85.5-85h-7.924L766.5 417.266zM774.272 340h-15.545l7.773 7.727 7.772-7.727zm31.092 0h-7.838L766.5 370.902 735.474 340h-7.838l38.864 38.636L805.364 340zM766.5 363.182L743.182 340h7.809l15.509 15.448L782.01 340h7.808L766.5 363.182z"/></g><g fill="#323232"><path d="M456.195 440.456l7.708-7.663 7.751 7.706-7.708 7.678-7.751-7.72zm15.517 15.456l7.723-7.678 7.752 7.707-7.723 7.691-7.752-7.72zm15.518 15.456l7.737-7.692 7.752 7.706-7.737 7.706-7.752-7.72zm15.475-30.883l-7.723 7.692-7.738-7.707 7.723-7.677 7.738 7.692zm.042 46.338l7.753-7.706 7.752 7.706-7.752 7.721-7.753-7.72zm15.49-30.897l-7.737 7.706-7.737-7.706 7.737-7.692 7.736 7.692zm.043 15.456l7.753-7.706 7.736 7.692-7.751 7.72-7.738-7.706zm15.475-30.912l-7.737 7.707-7.722-7.692 7.737-7.692 7.722 7.677zm.058 15.47l7.751-7.706 7.723 7.678-7.751 7.72-7.723-7.691zm15.532-15.44l7.752-7.707 7.707 7.663-7.75 7.72-7.709-7.677zM425 425l.072.072 7.767 7.721 7.765 7.72 7.767 7.721 7.766 7.721 7.766 7.72 7.767 7.721 7.765 7.72 7.766 7.722 7.766 7.72 7.766 7.72L510.5 510l7.766-7.721 7.767-7.72 7.766-7.721 7.765-7.721 7.767-7.72 7.766-7.721 7.765-7.72 7.767-7.722 7.766-7.72 7.766-7.72 7.766-7.722L596 425h-15.677l-7.752 7.721-7.693-7.663.058-.058h-15.678l.015.015-7.737 7.706-7.71-7.678.044-.043h-15.677l.03.029-7.723 7.691-7.723-7.69.029-.03h-15.677l.044.043-7.709 7.678-7.737-7.706.015-.015h-15.678l.059.058-7.695 7.663-7.752-7.721H425zM682 510h-8.142l4.07 4.048L682 510zm-28.5 28.334l4.072-4.048L633.189 510H625l28.5 28.334zm-8.143 8.094l4.071-4.047L616.918 510h-8.203l36.642 36.428zm24.429-24.285l4.07-4.048L665.73 510h-8.158l12.214 12.143zm-8.143 8.095l4.072-4.048L649.459 510h-8.173l20.357 20.238zm-24.429 24.286l4.072-4.048L600.647 510h-8.217l44.785 44.524zm-16.285 16.19l4.071-4.047L568.106 510h-8.248l61.07 60.714zm-16.286 16.19l4.072-4.047L535.565 510h-8.28l77.358 76.905zm8.143-8.095l4.072-4.047L551.836 510h-8.264l69.214 68.81zM596.5 595l4.072-4.047L519.294 510H511l85.5 85zm-20.357-85h8.234l48.766 48.571-4.072 4.048L576.143 510zM767 425h-15.545l7.772 7.727L767 425zm-15.545 0h-15.546l7.773 7.727 7.773-7.727zm-15.546 0h-15.546l7.773 7.727L735.91 425zm-15.546 0h-15.545l7.773 7.727 7.772-7.727zm-15.545 0h-15.545l7.773 7.727 7.772-7.727zm-15.545 0h-15.546l7.773 7.727 7.773-7.727zm-15.546 0h-15.545l7.772 7.727 7.773-7.727zm-15.545 0h-15.546l7.773 7.728 7.773-7.728zm-15.546 0h-15.545l7.773 7.728 7.772-7.728zm-15.545 0h-15.546l7.773 7.728 7.773-7.728zm-15.546 0H596l7.772 7.728 7.773-7.728zm139.91 15.454l-7.773-7.726-7.773 7.726 7.773 7.728 7.773-7.728zm-15.546 0l-7.773-7.726-7.773 7.726 7.773 7.728 7.773-7.728zm-15.546 0l-7.772-7.726-7.773 7.726 7.773 7.728 7.772-7.728zm15.547 15.456l-7.773-7.727-7.773 7.727 7.773 7.727 7.773-7.727zm-31.091-15.455l-7.772-7.726-7.773 7.726 7.773 7.728 7.772-7.728zm15.545 15.455l-7.772-7.727-7.773 7.727 7.773 7.727 7.772-7.727zm-31.09-15.455l-7.774-7.728-7.773 7.727 7.773 7.728 7.773-7.728zm15.545 15.455l-7.772-7.727-7.773 7.727 7.773 7.727 7.772-7.727zm15.545 15.455l-7.772-7.728-7.773 7.728 7.773 7.727 7.772-7.727zm-46.636-30.91l-7.773-7.727-7.773 7.727 7.773 7.728 7.773-7.728zm15.545 15.455l-7.773-7.728-7.773 7.727 7.773 7.727 7.773-7.727zm15.545 15.455l-7.772-7.728-7.773 7.728 7.773 7.727 7.772-7.727zm-46.637-30.91l-7.771-7.728-7.773 7.727 7.773 7.728 7.772-7.728zm15.546 15.455l-7.773-7.727-7.773 7.727 7.773 7.727 7.773-7.727zm15.546 15.455l-7.773-7.729-7.773 7.728 7.773 7.726 7.773-7.727zm15.545 15.454l-7.772-7.727-7.773 7.727 7.773 7.728 7.772-7.728zm-62.182-46.365l-7.772-7.726-7.773 7.726 7.773 7.728 7.772-7.728zm15.546 15.456l-7.773-7.727-7.773 7.727 7.773 7.727 7.773-7.727zm15.545 15.455l-7.773-7.728-7.772 7.728 7.772 7.727 7.773-7.727zm15.546 15.454l-7.773-7.728-7.773 7.727 7.773 7.728 7.773-7.728zm0 15.455l-7.773-7.728-7.773 7.727L681.5 510l7.773-7.727zm-15.546-15.456l-7.773-7.727-7.772 7.727 7.772 7.728 7.773-7.728zm-15.545-15.454l-7.773-7.728-7.773 7.728 7.773 7.727 7.773-7.727zm-15.546-15.455l-7.772-7.727-7.773 7.727 7.773 7.727 7.772-7.727zm-23.318-7.727l-7.773-7.728 7.773-7.726 7.773 7.726-7.773 7.728z"/></g></g></svg>